<svg id="Layer_1" data-name="Layer 1" xmlns="http://www.w3.org/2000/svg" xmlns:xlink="http://www.w3.org/1999/xlink" viewBox="0 0 119.427 42.016">
  <defs>
    <style>
      .cls-1 {
        fill: #c28d23;
      }

      .cls-2 {
        fill: #fff;
      }

      .cls-3 {
        fill: url(#linear-gradient);
      }

      .cls-4 {
        fill: url(#linear-gradient-2);
      }

      .cls-5 {
        fill: url(#linear-gradient-3);
      }

      .cls-6 {
        fill: url(#linear-gradient-4);
      }

      .cls-7 {
        fill: url(#linear-gradient-5);
      }

      .cls-8 {
        fill: url(#linear-gradient-6);
      }

      .cls-9 {
        fill: url(#linear-gradient-7);
      }

      .cls-10 {
        fill: url(#linear-gradient-8);
      }

      .cls-11 {
        fill: url(#linear-gradient-9);
      }
    </style>
    <linearGradient id="linear-gradient" x1="1.08" y1="16.123" x2="72.785" y2="16.123" gradientUnits="userSpaceOnUse">
      <stop offset="0" stop-color="#fff"/>
      <stop offset="1" stop-color="#c28d23"/>
    </linearGradient>
    <linearGradient id="linear-gradient-2" x1="1.416" y1="16.123" x2="73.149" y2="16.123" xlink:href="#linear-gradient"/>
    <linearGradient id="linear-gradient-3" x1="1.773" y1="16.123" x2="73.477" y2="16.123" xlink:href="#linear-gradient"/>
    <linearGradient id="linear-gradient-4" x1="2.119" y1="16.123" x2="73.824" y2="16.123" xlink:href="#linear-gradient"/>
    <linearGradient id="linear-gradient-5" x1="2.466" y1="16.123" x2="74.17" y2="16.123" xlink:href="#linear-gradient"/>
    <linearGradient id="linear-gradient-6" x1="2.791" y1="16.123" x2="74.525" y2="16.123" xlink:href="#linear-gradient"/>
    <linearGradient id="linear-gradient-7" x1="3.155" y1="16.123" x2="74.863" y2="16.123" xlink:href="#linear-gradient"/>
    <linearGradient id="linear-gradient-8" x1="3.478" y1="16.123" x2="75.212" y2="16.123" xlink:href="#linear-gradient"/>
    <linearGradient id="linear-gradient-9" x1="3.446" y1="16.123" x2="75.209" y2="16.123" xlink:href="#linear-gradient"/>
  </defs>
  <title>205cbe46-5109-4ea9-9edf-2a0a13998f87</title>
  <circle class="cls-1" cx="99.927" cy="19.5" r="19.5"/>
  <g>
    <g>
      <path class="cls-2" d="M2.176,32.96H.363V22.31H2.176Z"/>
      <path class="cls-2" d="M7.66,23.6H7.7a3.575,3.575,0,0,1,3.037-1.586c2.945,0,3.625,2.13,3.625,4.622V32.96H12.555v-6c0-1.723-.137-3.263-2.244-3.263-2.492,0-2.65,2.31-2.65,4.214V32.96H5.848V22.31H7.66Z"/>
      <path class="cls-2" d="M19.511,23.6h.045a3.574,3.574,0,0,1,3.036-1.586c2.946,0,3.626,2.13,3.626,4.622V32.96H24.405v-6c0-1.723-.137-3.263-2.244-3.263-2.492,0-2.65,2.31-2.65,4.214V32.96H17.7V22.31h1.813Z"/>
      <path class="cls-2" d="M28.6,27.657a5.6,5.6,0,1,1,5.6,5.6A5.589,5.589,0,0,1,28.6,27.657Zm1.812-.022a3.787,3.787,0,1,0,7.568,0,3.787,3.787,0,1,0-7.568,0Z"/>
      <path class="cls-2" d="M45.7,29.47l3.173-7.16h2.039L45.7,33.662,40.469,22.31h2.062Z"/>
      <path class="cls-2" d="M62.267,32.96H60.453V31.487h-.045a4.478,4.478,0,0,1-3.671,1.767c-3.127,0-5.1-2.65-5.1-5.6,0-3.036,1.927-5.642,5.121-5.642a4.606,4.606,0,0,1,3.648,1.813h.045V22.31h1.813ZM53.5,27.521c0,2.085,1.224,4.056,3.489,4.056,2.334,0,3.558-1.88,3.558-4.033a3.56,3.56,0,0,0-3.58-3.851A3.61,3.61,0,0,0,53.5,27.521Z"/>
      <path class="cls-2" d="M67.84,20.126v1.866H70.7v1.518H67.84v5.914c0,1.359.386,2.13,1.5,2.13a3.715,3.715,0,0,0,1.155-.136l.091,1.519a5.449,5.449,0,0,1-1.768.271,2.842,2.842,0,0,1-2.152-.839,4.281,4.281,0,0,1-.771-2.877V23.511h-1.7V21.992h1.7V20.737Z"/>
      <path class="cls-2" d="M75.046,32.96H73.232V22.31h1.813Z"/>
      <path class="cls-2" d="M82.25,29.47l3.173-7.16h2.039L82.25,33.662,77.016,22.31h2.063Z"/>
      <path class="cls-2" d="M90,28.019a3.449,3.449,0,0,0,3.489,3.558,3.645,3.645,0,0,0,3.24-2.2l1.541.884a5.376,5.376,0,0,1-4.917,2.99,5.155,5.155,0,0,1-5.212-5.483c0-3.149,1.835-5.755,5.166-5.755,3.422,0,5.234,2.832,5.054,6Zm6.457-1.54a3.249,3.249,0,0,0-3.127-2.787,3.367,3.367,0,0,0-3.24,2.787Z"/>
    </g>
    <g>
      <path class="cls-2" d="M21.688,36.509H21.7a1.074,1.074,0,0,1,.914-.518,1.165,1.165,0,0,1,1.052.631,1.264,1.264,0,0,1,1.14-.631c.971,0,1.214.792,1.214,1.593V39.9h-.647V37.689c0-.493-.032-1.1-.7-1.1-.744,0-.825.72-.825,1.294V39.9h-.646V37.738c0-.47-.057-1.148-.68-1.148-.76,0-.841.768-.841,1.342V39.9h-.647V36.1h.647Z"/>
      <path class="cls-2" d="M26.982,38a2,2,0,1,1,2,2A1.994,1.994,0,0,1,26.982,38ZM27.629,38a1.352,1.352,0,1,0,1.351-1.407A1.346,1.346,0,0,0,27.629,38Z"/>
      <path class="cls-2" d="M32.875,36.509h.016a.978.978,0,0,1,.842-.518,1.143,1.143,0,0,1,.582.178l-.308.591a.629.629,0,0,0-.388-.17c-.712,0-.744.913-.744,1.407v1.9h-.647V36.1h.647Z"/>
      <path class="cls-2" d="M36.358,35.045v.938h1.019v.541H36.358v2.111c0,.485.138.76.534.76a1.33,1.33,0,0,0,.412-.048l.032.541a1.925,1.925,0,0,1-.631.1,1.013,1.013,0,0,1-.768-.3,1.525,1.525,0,0,1-.275-1.026V36.524h-.606v-.541h.606v-.72Z"/>
      <path class="cls-2" d="M41.7,39.711a2.411,2.411,0,0,1-.389,1.634,1.838,1.838,0,0,1-1.472.671,1.74,1.74,0,0,1-1.868-1.746h.647a1.131,1.131,0,0,0,1.214,1.148c1,0,1.221-.736,1.221-1.594v-.453H41.04A1.685,1.685,0,0,1,39.722,40a1.861,1.861,0,0,1-1.811-1.989,1.894,1.894,0,0,1,1.836-2.021,1.584,1.584,0,0,1,1.294.646h.016V36.1H41.7Zm-3.13-1.755A1.313,1.313,0,0,0,39.818,39.4a1.3,1.3,0,0,0,1.27-1.439A1.27,1.27,0,0,0,39.81,36.59,1.288,1.288,0,0,0,38.573,37.956Z"/>
      <path class="cls-2" d="M46.5,39.9h-.646v-.526h-.017A1.6,1.6,0,0,1,44.53,40a2.014,2.014,0,0,1,.009-4.011,1.643,1.643,0,0,1,1.3.646h.017V36.1H46.5Zm-3.13-1.941A1.313,1.313,0,0,0,44.62,39.4a1.3,1.3,0,0,0,1.269-1.439,1.271,1.271,0,0,0-1.278-1.375A1.288,1.288,0,0,0,43.374,37.956Z"/>
      <path class="cls-2" d="M51.2,39.711a2.411,2.411,0,0,1-.389,1.634,1.838,1.838,0,0,1-1.472.671,1.74,1.74,0,0,1-1.868-1.746h.647a1.131,1.131,0,0,0,1.214,1.148c1,0,1.221-.736,1.221-1.594v-.453h-.016A1.685,1.685,0,0,1,49.22,40a1.861,1.861,0,0,1-1.811-1.989,1.894,1.894,0,0,1,1.836-2.021,1.584,1.584,0,0,1,1.294.646h.016V36.1H51.2Zm-3.13-1.755A1.313,1.313,0,0,0,49.316,39.4a1.3,1.3,0,0,0,1.269-1.439,1.27,1.27,0,0,0-1.277-1.375A1.288,1.288,0,0,0,48.071,37.956Z"/>
      <path class="cls-2" d="M52.856,38.134A1.231,1.231,0,0,0,54.1,39.4a1.3,1.3,0,0,0,1.156-.785l.55.315A1.917,1.917,0,0,1,54.053,40a1.84,1.84,0,0,1-1.859-1.957,1.842,1.842,0,1,1,3.646.089Zm2.3-.55a1.159,1.159,0,0,0-1.116-.994,1.2,1.2,0,0,0-1.156.994Z"/>
      <path class="cls-2" d="M59.93,36.977a.606.606,0,0,0-.517-.388.461.461,0,0,0-.47.42c0,.348.437.477.882.663a1.158,1.158,0,0,1,.882,1.092A1.243,1.243,0,0,1,59.42,40a1.366,1.366,0,0,1-1.343-.962l.574-.243c.162.356.348.607.776.607a.579.579,0,0,0,.615-.583c0-.849-1.715-.558-1.715-1.755a1.083,1.083,0,0,1,1.132-1.075,1.149,1.149,0,0,1,1.012.7Z"/>
      <path class="cls-2" d="M61.675,38a2,2,0,1,1,2,2A1.994,1.994,0,0,1,61.675,38ZM62.321,38a1.352,1.352,0,1,0,1.351-1.407A1.346,1.346,0,0,0,62.321,38Z"/>
      <path class="cls-2" d="M67.1,39.9h-.646V33.226H67.1Z"/>
      <path class="cls-2" d="M69.3,38.215c0,.639.073,1.189.857,1.189s.857-.551.857-1.189V36.1h.646v2.191c0,1.011-.38,1.714-1.5,1.714s-1.5-.7-1.5-1.714V36.1H69.3Z"/>
      <path class="cls-2" d="M73.742,35.045v.938h1.02v.541h-1.02v2.111c0,.485.138.76.534.76a1.331,1.331,0,0,0,.412-.048l.032.541a1.925,1.925,0,0,1-.631.1,1.013,1.013,0,0,1-.768-.3,1.524,1.524,0,0,1-.275-1.026V36.524H72.44v-.541h.606v-.72Z"/>
      <path class="cls-2" d="M76.563,34.665a.461.461,0,1,1-.922,0,.461.461,0,0,1,.922,0ZM76.426,39.9h-.646V36.1h.646Z"/>
      <path class="cls-2" d="M77.185,38a2,2,0,1,1,2,2A1.994,1.994,0,0,1,77.185,38ZM77.832,38a1.352,1.352,0,1,0,1.351-1.407A1.346,1.346,0,0,0,77.832,38Z"/>
      <path class="cls-2" d="M82.787,36.558H82.8a1.277,1.277,0,0,1,1.084-.566c1.052,0,1.294.76,1.294,1.649V39.9h-.646V37.754c0-.614-.049-1.164-.8-1.164-.89,0-.946.824-.946,1.5v1.8H82.14V36.1h.648Z"/>
      <path class="cls-2" d="M88.017,36.977a.606.606,0,0,0-.517-.388.461.461,0,0,0-.47.42c0,.348.437.477.882.663a1.158,1.158,0,0,1,.882,1.092A1.243,1.243,0,0,1,87.508,40a1.366,1.366,0,0,1-1.343-.962l.574-.243c.162.356.348.607.776.607a.579.579,0,0,0,.615-.583c0-.849-1.715-.558-1.715-1.755a1.083,1.083,0,0,1,1.132-1.075,1.149,1.149,0,0,1,1.012.7Z"/>
    </g>
  </g>
  <path class="cls-2" d="M2.453,16.123a1.227,1.227,0,1,1-2.453,0A1.239,1.239,0,0,1,1.226,14.9,1.239,1.239,0,0,1,2.453,16.123Z"/>
  <path class="cls-2" d="M9.06,16.123a1.227,1.227,0,0,1-2.454,0,1.227,1.227,0,0,1,2.454,0Z"/>
  <path class="cls-2" d="M15.667,16.123a1.227,1.227,0,0,1-2.454,0,1.227,1.227,0,0,1,2.454,0Z"/>
  <path class="cls-3" d="M22.273,16.123a1.227,1.227,0,1,1-2.453,0,1.227,1.227,0,0,1,2.453,0Z"/>
  <path class="cls-4" d="M28.88,16.123a1.227,1.227,0,0,1-2.454,0,1.227,1.227,0,0,1,2.454,0Z"/>
  <path class="cls-5" d="M35.486,16.123a1.227,1.227,0,1,1-2.453,0,1.227,1.227,0,0,1,2.453,0Z"/>
  <path class="cls-6" d="M42.093,16.123a1.227,1.227,0,1,1-2.453,0,1.227,1.227,0,0,1,2.453,0Z"/>
  <path class="cls-7" d="M48.7,16.123a1.227,1.227,0,1,1-2.453,0,1.227,1.227,0,0,1,2.453,0Z"/>
  <path class="cls-8" d="M55.307,16.123a1.227,1.227,0,0,1-2.454,0,1.227,1.227,0,0,1,2.454,0Z"/>
  <path class="cls-9" d="M61.912,16.123a1.227,1.227,0,0,1-2.453,0,1.227,1.227,0,0,1,2.453,0Z"/>
  <path class="cls-10" d="M68.519,16.123a1.227,1.227,0,0,1-2.454,0,1.227,1.227,0,0,1,2.454,0Z"/>
  <path class="cls-11" d="M75.127,16.123a1.228,1.228,0,0,1-2.455,0,1.228,1.228,0,0,1,2.455,0Z"/>
</svg>
